<?xml version="1.0" standalone="no"?>
<!DOCTYPE svg PUBLIC "-//W3C//DTD SVG 20010904//EN"
 "http://www.w3.org/TR/2001/REC-SVG-20010904/DTD/svg10.dtd">
<svg version="1.0" xmlns="http://www.w3.org/2000/svg"
 width="512.000000pt" height="512.000000pt" viewBox="0 0 512.000000 512.000000"
 preserveAspectRatio="xMidYMid meet">
<metadata>
Created by potrace 1.14, written by Peter Selinger 2001-2017
</metadata>
<g transform="translate(0.000000,512.000000) scale(0.100000,-0.100000)"
fill="#000000" stroke="none">
<path d="M2111 5098 c-90 -34 -167 -127 -185 -223 -8 -38 -8 -710 0 -750 16
-89 88 -180 173 -218 39 -19 69 -22 204 -25 l157 -4 0 -609 0 -609 -225 0
-224 0 -140 278 c-76 152 -159 316 -183 364 l-45 86 39 72 c49 91 97 231 113
331 12 77 13 265 1 324 -4 17 -9 44 -12 60 -31 162 -135 364 -249 482 -52 54
-87 70 -130 59 -14 -4 -101 -82 -196 -176 l-170 -169 -314 -3 -315 -3 -27 -28
-28 -27 -5 -318 -5 -317 -150 -150 c-178 -178 -184 -185 -190 -216 -10 -48 14
-87 92 -149 102 -82 163 -120 263 -162 150 -64 279 -88 448 -82 l102 4 0 -130
0 -130 -145 0 c-86 0 -154 -5 -169 -11 -56 -26 -56 -27 -56 -637 l0 -559 -57
-22 c-238 -90 -416 -299 -469 -550 -16 -76 -13 -240 6 -316 16 -61 71 -186
108 -240 131 -194 349 -313 587 -320 217 -6 392 61 541 209 144 143 214 303
219 501 3 135 -14 223 -64 330 -36 76 -106 185 -119 185 -4 0 -15 12 -25 25
l-18 25 402 0 403 0 -30 -32 c-84 -90 -148 -206 -180 -323 -21 -79 -26 -253
-9 -331 22 -102 65 -200 130 -293 30 -44 159 -161 210 -191 122 -73 220 -101
360 -106 135 -4 226 15 350 76 303 147 466 482 398 815 -19 95 -92 242 -159
320 l-55 65 403 0 402 0 -31 -32 c-88 -95 -162 -235 -187 -358 -20 -97 -13
-268 14 -355 70 -223 217 -388 425 -476 96 -42 161 -53 290 -54 97 0 134 5
195 24 79 24 198 82 239 116 161 132 244 263 288 449 12 53 10 235 -3 299 -25
116 -100 260 -183 350 -68 74 -189 153 -293 192 l-48 18 -1 566 c-1 311 -1
569 -1 572 1 3 -13 19 -29 35 l-30 29 -217 3 -217 3 0 494 1 495 201 201 201
201 49 -87 c30 -55 58 -92 75 -101 21 -11 75 -14 228 -14 225 0 251 6 270 65
15 47 -3 104 -40 122 -8 4 -91 10 -185 13 l-170 5 -44 79 -45 79 39 71 c21 39
42 77 48 84 7 9 53 12 168 12 176 0 200 6 224 55 18 39 19 59 4 88 -29 53 -39
55 -260 57 -132 0 -215 -3 -231 -10 -28 -13 -30 -16 -116 -170 -63 -113 -70
-121 -333 -385 -184 -184 -272 -280 -277 -300 -4 -17 -8 -261 -7 -542 l1 -513
-412 0 -413 0 -3 151 -3 151 -33 29 c-37 33 -71 37 -112 12 -43 -25 -50 -52
-50 -203 l0 -140 -100 0 -100 0 0 610 0 610 99 0 100 0 3 -151 3 -151 30 -24
c52 -42 123 -27 154 33 6 13 11 77 11 157 l0 136 133 1 c72 0 146 3 162 5 87
14 173 82 216 170 l24 49 0 395 c0 391 0 395 -23 443 -29 61 -85 117 -148 148
l-49 24 -605 2 c-591 2 -606 2 -659 -19z m1225 -188 c59 -20 59 -22 61 -409
l3 -353 -34 -34 -33 -33 -562 -1 c-613 0 -614 0 -640 56 -7 17 -11 132 -11
365 0 303 2 344 17 370 9 16 29 33 43 38 35 13 1119 14 1156 1z m-1870 -487
c64 -97 115 -227 131 -328 9 -63 9 -214 -1 -280 -22 -156 -111 -327 -236 -455
-210 -217 -568 -302 -857 -205 -91 31 -255 121 -250 138 3 11 1169 1177 1176
1177 4 0 20 -21 37 -47z m-636 -257 c0 -6 -270 -276 -276 -276 -2 0 -4 63 -4
140 l0 140 140 0 c77 0 140 -2 140 -4z m818 -1228 l140 -278 -339 0 -339 0 0
154 0 154 45 21 c25 12 47 21 51 21 6 0 142 78 159 92 5 4 39 32 75 62 36 29
65 53 66 52 1 0 64 -126 142 -278z m2732 -968 l0 -490 -1820 0 -1820 0 0 490
0 490 1820 0 1820 0 0 -490z m-3457 -724 c150 -57 265 -171 324 -323 22 -57
26 -84 27 -173 1 -168 -45 -280 -160 -394 -299 -294 -804 -144 -899 267 -27
119 -4 289 52 376 89 142 200 227 345 265 82 22 228 14 311 -18z m1820 0 c227
-85 367 -299 353 -537 -10 -177 -97 -324 -251 -425 -86 -56 -165 -78 -285 -78
-158 1 -268 45 -378 154 -100 99 -144 195 -159 348 -23 248 158 492 414 557
86 22 220 13 306 -19z m1822 0 c123 -46 243 -155 300 -271 79 -161 67 -374
-29 -520 -193 -294 -587 -339 -835 -96 -153 150 -201 388 -118 586 58 141 181
256 324 304 83 28 88 29 193 26 73 -2 111 -9 165 -29z"/>
<path d="M2648 4820 c-90 -34 -161 -100 -200 -187 -33 -72 -32 -198 3 -273 51
-108 160 -185 278 -196 246 -22 428 215 347 454 -23 68 -97 149 -170 186 -72
36 -185 43 -258 16z m159 -191 c18 -6 44 -24 57 -40 89 -106 -17 -263 -148
-219 -98 32 -125 161 -48 232 40 38 79 45 139 27z"/>
<path d="M1001 2209 c-11 -9 -25 -29 -31 -44 -14 -36 -13 -354 1 -394 12 -33
53 -61 89 -61 30 0 76 29 88 55 14 30 15 362 2 401 -20 57 -102 81 -149 43z"/>
<path d="M1433 2218 c-44 -22 -53 -63 -53 -246 0 -98 5 -182 11 -201 26 -74
138 -80 175 -9 12 22 14 69 14 217 l-2 189 -31 29 c-34 31 -77 39 -114 21z"/>
<path d="M1848 2213 c-15 -10 -32 -31 -38 -47 -16 -47 -13 -371 4 -405 26 -49
86 -64 137 -34 46 27 51 53 47 257 l-3 188 -33 29 c-37 33 -74 37 -114 12z"/>
<path d="M2508 2213 c-48 -30 -60 -84 -31 -134 38 -64 135 -61 167 5 44 93
-50 182 -136 129z"/>
<path d="M2902 2205 c-36 -30 -47 -66 -32 -109 22 -67 10 -66 590 -66 364 0
528 3 543 11 51 26 73 91 47 140 -26 48 -33 49 -594 49 l-524 0 -30 -25z"/>
<path d="M635 1059 c-199 -61 -291 -293 -191 -484 35 -67 107 -124 201 -160
76 -28 207 -7 284 45 243 167 172 543 -114 609 -62 15 -110 12 -180 -10z m164
-197 c46 -23 70 -58 77 -112 13 -109 -118 -187 -211 -126 -61 40 -81 123 -44
182 42 69 111 91 178 56z"/>
<path d="M2453 1061 c-170 -58 -266 -239 -217 -411 80 -286 458 -337 615 -83
80 129 55 306 -58 417 -85 83 -226 115 -340 77z m183 -206 c40 -26 63 -72 60
-120 -5 -81 -64 -135 -143 -131 -142 8 -179 192 -52 259 39 21 96 18 135 -8z"/>
<path d="M4286 1065 c-98 -27 -200 -125 -228 -219 -21 -69 -14 -183 15 -246
105 -232 424 -265 579 -60 64 86 82 213 44 319 -58 161 -240 252 -410 206z
m161 -205 c71 -43 92 -126 49 -191 -32 -48 -69 -67 -124 -65 -140 7 -178 194
-51 258 44 23 86 23 126 -2z"/>
<path d="M2892 3350 c-25 -25 -30 -37 -28 -70 4 -47 19 -68 64 -87 27 -11 37
-11 65 0 40 17 53 33 62 75 7 35 -21 95 -51 106 -39 15 -83 6 -112 -24z"/>
</g>
</svg>
